<?xml version="1.0" encoding="utf-8"?>
<!-- Generator: Adobe Illustrator 16.0.0, SVG Export Plug-In . SVG Version: 6.00 Build 0)  -->
<!DOCTYPE svg PUBLIC "-//W3C//DTD SVG 1.1//EN" "http://www.w3.org/Graphics/SVG/1.1/DTD/svg11.dtd">
<svg aria-hidden="true" focusable="false" data-prefix="fab" data-icon="youtube" class="svg-inline--fa fa-youtube fa-w-18" role="img" 
xmlns="http://www.w3.org/2000/svg" viewBox="0 0  1190.6 841.9">
<!-- <svg version="1.1" id="Layer_1" focusable="false" xmlns="http://www.w3.org/2000/svg" xmlns:xlink="http://www.w3.org/1999/xlink"
	 x="0px" y="0px" width="1190.6px" height="841.9px" viewBox="0 0 1190.6 841.9" style="enable-background:new 0 0 1190.6 841.9;"
	 xml:space="preserve"> -->
<path style="fill:#5A5A5A;" d="M1025.5,204c-10.3-38.9-40.8-69.5-79.4-79.9c-70-18.9-350.8-18.9-350.8-18.9s-280.8,0-350.9,18.9
	c-38.6,10.4-69.1,41-79.4,79.9c-18.8,70.5-18.8,217.5-18.8,217.5s0,147.1,18.8,217.6c10.3,38.9,40.8,68.2,79.4,78.6
	c70,18.9,350.9,18.9,350.9,18.9s280.8,0,350.8-18.9c38.6-10.4,69.1-39.7,79.4-78.6c18.8-70.5,18.8-217.6,18.8-217.6
	S1044.3,274.5,1025.5,204z M503.4,555.1V288.1l234.7,133.5L503.4,555.1z"/>
<polygon style="fill:#FFFFFF;" points="738.1,421.6 503.4,555.1 503.4,288.1 "/>
</svg>
